<?xml version="1.0" standalone="no"?><svg xmlns="http://www.w3.org/2000/svg" viewBox="0 0 1440 320"><path fill="#0099ff" fill-opacity="1" d="M0,96L40,101.3C80,107,160,117,240,112C320,107,400,85,480,101.3C560,117,640,171,720,192C800,213,880,203,960,197.3C1040,192,1120,192,1200,202.7C1280,213,1360,235,1400,245.3L1440,256L1440,320L1400,320C1360,320,1280,320,1200,320C1120,320,1040,320,960,320C880,320,800,320,720,320C640,320,560,320,480,320C400,320,320,320,240,320C160,320,80,320,40,320L0,320Z"></path></svg>