<svg xmlns="http://www.w3.org/2000/svg" width="1920" height="483.641" viewBox="0 0 1920 483.641">
  <g id="Group_5610" data-name="Group 5610" transform="translate(6667 6050.641)">
    <path id="footer2" d="M0,33.671,80,60.54c80,26.869,217.65,51.279,377.65,42.379C617.65,93.347,800,195.575,960,177.1s127.427-11.16,384.109,0C1489.191,67.734,1851.557,30.78,1920,60.54h0V517.313H0Z" transform="translate(-6667 -6084.313)" fill="#f2f2f2"/>
    <path id="footer2-2" data-name="footer2" d="M0,33.253,80,55.928C160,78.6,320,86.114,480,78.6c160-8.078,320-29.761,480-45.35s320,15.589,480,30.186C1600,78.6,1760,78.6,1840,78.6h80v362.8H0Z" transform="translate(-6667 -6008.405)" fill="#e3e3e3"/>
  </g>
</svg>
