<svg xmlns="http://www.w3.org/2000/svg" width="96.593" height="101.748" viewBox="0 0 96.593 101.748">
  <g id="Path_4475" data-name="Path 4475" transform="translate(-3.703 -4.626)" fill="#fff" stroke-dasharray="20">
    <path d="M44.7,7.789a10,10,0,0,1,14.595,0l38.3,40.874a10,10,0,0,1,0,13.674L59.3,103.211a10,10,0,0,1-14.595,0L6.406,62.337a10,10,0,0,1,0-13.674Z" stroke="none"/>
    <path d="M 52 4.625816345214844 C 52.00296401977539 4.625816345214844 52.00586318969727 4.625816345214844 52.00882720947266 4.625816345214844 C 52.00980377197266 4.625816345214844 52.01067733764648 4.625823974609375 52.01165008544922 4.625823974609375 C 52.0136604309082 4.625823974609375 52.01569366455078 4.625823974609375 52.01770401000977 4.625831604003906 C 52.01884078979492 4.625831604003906 52.01993560791016 4.625831604003906 52.02107238769531 4.625839233398438 C 52.02303314208984 4.625839233398438 52.02497863769531 4.625846862792969 52.02693939208984 4.6258544921875 C 52.02791213989258 4.6258544921875 52.02888107299805 4.6258544921875 52.02985763549805 4.625862121582031 C 52.0321159362793 4.625862121582031 52.03441619873047 4.625877380371094 52.03667831420898 4.625885009765625 C 52.03749084472656 4.625885009765625 52.03812408447266 4.625885009765625 52.03893661499023 4.625892639160156 C 52.04184722900391 4.625900268554688 52.04477691650391 4.62591552734375 52.04768753051758 4.625930786132813 C 52.04833984375 4.625930786132813 52.04928207397461 4.625938415527344 52.04993057250977 4.625938415527344 C 52.05213928222656 4.625953674316406 52.05430603027344 4.625961303710938 52.05651473999023 4.6259765625 C 52.05749130249023 4.6259765625 52.05850219726563 4.625984191894531 52.05947494506836 4.625991821289063 C 52.06158447265625 4.625999450683594 52.06381607055664 4.626014709472656 52.06592559814453 4.626029968261719 C 52.06690216064453 4.62603759765625 52.06755447387695 4.626045227050781 52.06853103637695 4.626045227050781 C 52.07064056396484 4.626060485839844 52.07277679443359 4.626075744628906 52.07488632202148 4.626091003417969 C 52.07586288452148 4.6260986328125 52.07674407958984 4.626106262207031 52.07771682739258 4.626113891601563 C 52.08052825927734 4.626136779785156 52.08345413208008 4.62615966796875 52.08626556396484 4.626182556152344 C 52.08707809448242 4.626190185546875 52.08798217773438 4.626197814941406 52.08879470825195 4.626205444335938 C 52.09090423583984 4.626228332519531 52.0930290222168 4.626243591308594 52.09513854980469 4.626266479492188 C 52.09627532958984 4.626274108886719 52.09748840332031 4.626289367675781 52.09862518310547 4.626296997070313 C 52.10043334960938 4.626312255859375 52.10210800170898 4.626335144042969 52.10391616821289 4.626350402832031 C 52.10521697998047 4.626365661621094 52.10625076293945 4.626373291015625 52.10755157470703 4.626388549804688 C 52.10935974121094 4.626411437988281 52.11125564575195 4.626426696777344 52.11306381225586 4.626449584960938 C 52.11420059204102 4.62646484375 52.11542510986328 4.626472473144531 52.11656188964844 4.626487731933594 C 52.11942291259766 4.62652587890625 52.12226867675781 4.626556396484375 52.1251335144043 4.626594543457031 C 52.1256217956543 4.626594543457031 52.12641143798828 4.626609802246094 52.12689590454102 4.626617431640625 C 52.12915802001953 4.626640319824219 52.13148498535156 4.626670837402344 52.13374328613281 4.626701354980469 C 52.13488006591797 4.626716613769531 52.1362190246582 4.626739501953125 52.13735580444336 4.626754760742188 C 52.13911437988281 4.626777648925781 52.14087677001953 4.626800537109375 52.14263534545898 4.626823425292969 C 52.14377212524414 4.626838684082031 52.14525985717773 4.626861572265625 52.14639663696289 4.626876831054688 C 52.14815521240234 4.626907348632813 52.14989471435547 4.626930236816406 52.15165328979492 4.626953125 C 52.15295028686523 4.626976013183594 52.1539192199707 4.626991271972656 52.15522003173828 4.62701416015625 C 52.1580810546875 4.627052307128906 52.16087341308594 4.627098083496094 52.16373825073242 4.627143859863281 C 52.16438674926758 4.627159118652344 52.16492080688477 4.627166748046875 52.16556930541992 4.627174377441406 C 52.16788101196289 4.627212524414063 52.17021179199219 4.627250671386719 52.17252349853516 4.627288818359375 C 52.17366027832031 4.627311706542969 52.17479705810547 4.627334594726563 52.17593383789063 4.627349853515625 C 52.1778450012207 4.627388000488281 52.1796989440918 4.627418518066406 52.18160629272461 4.627449035644531 C 52.18257904052734 4.627471923828125 52.18375015258789 4.627494812011719 52.18472671508789 4.627510070800781 C 52.18668365478516 4.627548217773438 52.18869781494141 4.627578735351563 52.19065856933594 4.627616882324219 C 52.19179534912109 4.627639770507813 52.19286346435547 4.627662658691406 52.19400024414063 4.627685546875 C 52.19671249389648 4.627738952636719 52.19930267333984 4.627784729003906 52.2020149230957 4.627838134765625 C 52.20217895507813 4.627845764160156 52.20242309570313 4.627845764160156 52.20258331298828 4.627853393554688 C 52.20549774169922 4.627906799316406 52.20835876464844 4.627967834472656 52.21127319335938 4.628028869628906 C 52.21224975585938 4.6280517578125 52.21342468261719 4.628074645996094 52.21439743041992 4.628097534179688 C 52.21635818481445 4.628135681152344 52.21836471557617 4.628181457519531 52.2203254699707 4.628227233886719 C 52.22146224975586 4.628250122070313 52.22250747680664 4.628273010253906 52.2236442565918 4.6282958984375 C 52.22550201416016 4.628341674804688 52.22727966308594 4.628379821777344 52.2291374206543 4.62841796875 C 52.23043823242188 4.628448486328125 52.23136520385742 4.628471374511719 52.23266220092773 4.628501892089844 C 52.23512268066406 4.628555297851563 52.23760986328125 4.628616333007813 52.24007034301758 4.628677368164063 C 52.24039459228516 4.628684997558594 52.24094009399414 4.628692626953125 52.24126434326172 4.628707885742188 C 52.24433135986328 4.628776550292969 52.24732208251953 4.628852844238281 52.25038528442383 4.628929138183594 C 52.25086975097656 4.628936767578125 52.25159454345703 4.628959655761719 52.25207901000977 4.62896728515625 C 52.25444030761719 4.6290283203125 52.25681686401367 4.62908935546875 52.25917816162109 4.629150390625 C 52.26015090942383 4.629173278808594 52.26116561889648 4.629203796386719 52.26213836669922 4.629226684570313 C 52.2640495300293 4.6292724609375 52.26597213745117 4.629325866699219 52.26787948608398 4.629379272460938 C 52.26901626586914 4.629409790039063 52.27030944824219 4.629440307617188 52.27144622802734 4.629470825195313 C 52.27365493774414 4.629531860351563 52.27588272094727 4.629592895507813 52.27809143066406 4.629653930664063 C 52.27873992919922 4.629669189453125 52.27934646606445 4.629692077636719 52.27999496459961 4.629707336425781 C 52.28290939331055 4.629791259765625 52.28586959838867 4.629867553710938 52.28878021240234 4.629951477050781 C 52.28959274291992 4.629974365234375 52.29058837890625 4.6300048828125 52.29140090942383 4.630027770996094 C 52.29356002807617 4.630096435546875 52.29568481445313 4.630157470703125 52.29784393310547 4.630218505859375 C 52.2988166809082 4.6302490234375 52.29984283447266 4.630279541015625 52.30081558227539 4.63031005859375 C 52.30282592773438 4.63037109375 52.30472564697266 4.630424499511719 52.30673599243164 4.630485534667969 C 52.30770874023438 4.630516052246094 52.30895614624023 4.63055419921875 52.30992889404297 4.630584716796875 C 52.31213760375977 4.630653381347656 52.31439971923828 4.630722045898438 52.31661224365234 4.630790710449219 C 52.3172607421875 4.630813598632813 52.31809997558594 4.630836486816406 52.31874847412109 4.630859375 C 52.32176208496094 4.630950927734375 52.32464599609375 4.631050109863281 52.32765960693359 4.631141662597656 C 52.32814407348633 4.631156921386719 52.32870101928711 4.631179809570313 52.32918930053711 4.631195068359375 C 52.33164978027344 4.631278991699219 52.33412170410156 4.631355285644531 52.33658218383789 4.631439208984375 C 52.33739471435547 4.6314697265625 52.3384895324707 4.631500244140625 52.33929824829102 4.63153076171875 C 52.34130859375 4.631599426269531 52.34342193603516 4.631668090820313 52.34542846679688 4.631736755371094 C 52.34656524658203 4.63177490234375 52.34764862060547 4.631813049316406 52.34878540039063 4.631851196289063 C 52.35079574584961 4.631927490234375 52.35289001464844 4.631996154785156 52.35489654541016 4.632072448730469 C 52.35570907592773 4.632095336914063 52.35665512084961 4.632133483886719 52.35746383666992 4.632156372070313 C 52.36047744750977 4.63226318359375 52.36338424682617 4.632369995117188 52.36639785766602 4.632476806640625 C 52.36656188964844 4.632484436035156 52.36660003662109 4.632484436035156 52.36676406860352 4.632492065429688 C 52.36967468261719 4.632598876953125 52.37257766723633 4.632705688476563 52.37549209594727 4.6328125 C 52.37614059448242 4.632843017578125 52.37702941894531 4.63287353515625 52.37767791748047 4.632896423339844 C 52.37978744506836 4.632980346679688 52.38198471069336 4.633056640625 52.38409423828125 4.633140563964844 C 52.38522720336914 4.633186340332031 52.3862419128418 4.633224487304688 52.38737487792969 4.633262634277344 C 52.38943481445313 4.633346557617188 52.39149856567383 4.6334228515625 52.39355850219727 4.633506774902344 C 52.39437103271484 4.633537292480469 52.3953742980957 4.633575439453125 52.39618682861328 4.63360595703125 C 52.40216064453125 4.633842468261719 52.40803146362305 4.634078979492188 52.41400527954102 4.634323120117188 C 52.41481781005859 4.634361267089844 52.41559600830078 4.634391784667969 52.41640853881836 4.634422302246094 C 52.4185676574707 4.634513854980469 52.42071914672852 4.634605407714844 52.42287826538086 4.634696960449219 C 52.42401504516602 4.634742736816406 52.42491149902344 4.634780883789063 52.42604827880859 4.63482666015625 C 52.42815780639648 4.634918212890625 52.43029022216797 4.635009765625 52.43239593505859 4.635101318359375 C 52.43304824829102 4.635124206542969 52.43399429321289 4.635169982910156 52.43464660644531 4.63519287109375 C 52.43730545043945 4.635307312011719 52.43991851806641 4.635421752929688 52.44257736206055 4.635543823242188 C 52.44290161132813 4.63555908203125 52.44346618652344 4.635581970214844 52.44379043579102 4.635597229003906 C 52.44675064086914 4.635726928710938 52.44983673095703 4.6358642578125 52.45279693603516 4.635993957519531 C 52.45344543457031 4.636024475097656 52.45407485961914 4.636054992675781 52.4547233581543 4.636085510253906 C 52.45698165893555 4.636184692382813 52.45927810668945 4.63629150390625 52.4615364074707 4.636390686035156 C 52.46250915527344 4.636436462402344 52.46362686157227 4.636489868164063 52.46460342407227 4.63653564453125 C 52.46665954589844 4.636627197265625 52.46881484985352 4.636726379394531 52.47087478637695 4.636825561523438 C 52.47168350219727 4.636863708496094 52.47272872924805 4.636909484863281 52.47354125976563 4.636947631835938 C 52.47605133056641 4.637069702148438 52.47854614257813 4.637184143066406 52.48105621337891 4.637306213378906 C 52.48138046264648 4.637321472167969 52.48202896118164 4.637351989746094 52.48235321044922 4.637367248535156 C 52.4854621887207 4.637519836425781 52.48855972290039 4.637664794921875 52.49167251586914 4.6378173828125 C 52.4918327331543 4.637825012207031 52.49185180664063 4.637832641601563 52.49201583862305 4.637840270996094 C 52.49487686157227 4.637977600097656 52.49782943725586 4.63812255859375 52.50069046020508 4.638267517089844 C 52.50133895874023 4.638298034667969 52.50201797485352 4.638328552246094 52.50266647338867 4.63836669921875 C 52.50502395629883 4.638481140136719 52.50744247436523 4.638603210449219 52.50979995727539 4.638725280761719 C 52.51044845581055 4.638755798339844 52.51124954223633 4.6387939453125 52.51189804077148 4.638832092285156 C 52.51445770263672 4.638961791992188 52.51704788208008 4.639091491699219 52.51960754394531 4.639228820800781 C 52.52009582519531 4.639251708984375 52.52052688598633 4.639274597167969 52.52101135253906 4.639297485351563 C 52.52708435058594 4.639610290527344 52.53301620483398 4.639923095703125 52.53908920288086 4.640251159667969 C 52.53989791870117 4.640296936035156 52.54068756103516 4.640335083007813 52.54150009155273 4.640380859375 C 52.54380798339844 4.6405029296875 52.54619979858398 4.640632629394531 52.54850769042969 4.640762329101563 C 52.54915618896484 4.640792846679688 52.54985427856445 4.640830993652344 52.55050277709961 4.640869140625 C 52.5531120300293 4.641014099121094 52.55561447143555 4.641151428222656 52.55822372436523 4.64129638671875 C 52.55870819091797 4.641319274902344 52.55905532836914 4.641342163085938 52.55953979492188 4.641365051269531 C 52.5656623840332 4.641708374023438 52.57174301147461 4.642051696777344 52.57786178588867 4.642402648925781 C 52.57851028442383 4.642440795898438 52.57928848266602 4.642486572265625 52.57994079589844 4.642524719238281 C 52.58229827880859 4.642662048339844 52.58464050292969 4.642791748046875 52.58699798583984 4.642929077148438 C 52.58781051635742 4.642982482910156 52.5883674621582 4.643013000488281 52.58917999267578 4.643058776855469 C 52.59158706665039 4.643203735351563 52.59394073486328 4.643341064453125 52.59634780883789 4.643486022949219 C 52.59699630737305 4.643524169921875 52.59778213500977 4.643569946289063 52.59843063354492 4.643608093261719 C 52.60449981689453 4.643966674804688 52.61055374145508 4.644332885742188 52.61662292480469 4.644706726074219 C 52.61711120605469 4.644737243652344 52.6174430847168 4.644752502441406 52.6179313659668 4.644783020019531 C 52.62059020996094 4.644950866699219 52.62322998046875 4.645111083984375 52.62588500976563 4.645278930664063 C 52.62653350830078 4.645317077636719 52.62689971923828 4.645339965820313 52.62754821777344 4.645378112792969 C 52.63010406494141 4.645538330078125 52.63259506225586 4.645698547363281 52.63515472412109 4.645858764648438 C 52.63580322265625 4.645896911621094 52.63620758056641 4.645927429199219 52.63685607910156 4.645965576171875 C 52.64302444458008 4.646354675292969 52.64921951293945 4.646759033203125 52.65538787841797 4.64715576171875 C 52.65554809570313 4.647171020507813 52.65571212768555 4.647178649902344 52.6558723449707 4.647186279296875 C 52.65873336791992 4.647377014160156 52.66167068481445 4.647567749023438 52.66452789306641 4.647758483886719 C 52.66501235961914 4.647789001464844 52.66548156738281 4.647819519042969 52.66596984863281 4.647857666015625 C 52.6685791015625 4.648025512695313 52.67116546630859 4.648200988769531 52.67377090454102 4.64837646484375 C 52.67425918579102 4.648406982421875 52.67494964599609 4.648452758789063 52.67543792724609 4.648483276367188 C 52.68471145629883 4.64910888671875 52.69402694702148 4.649749755859375 52.70330047607422 4.650398254394531 C 52.7036247253418 4.650421142578125 52.70387649536133 4.650436401367188 52.70420074462891 4.650459289550781 C 52.70700836181641 4.650657653808594 52.7098503112793 4.650856018066406 52.7126579284668 4.651054382324219 C 52.71298217773438 4.651077270507813 52.71337890625 4.651107788085938 52.71370315551758 4.651130676269531 C 52.71670913696289 4.651344299316406 52.71968460083008 4.651557922363281 52.72269439697266 4.651771545410156 C 52.72285461425781 4.651786804199219 52.7227783203125 4.651779174804688 52.72293853759766 4.65179443359375 C 52.72930526733398 4.652252197265625 52.73563003540039 4.6527099609375 52.74199676513672 4.653182983398438 C 52.74215698242188 4.653190612792969 52.74219131469727 4.6531982421875 52.74235534667969 4.653205871582031 C 52.745361328125 4.653427124023438 52.74836730957031 4.653656005859375 52.75137710571289 4.653877258300781 C 52.7516975402832 4.653900146484375 52.75181198120117 4.653907775878906 52.75213623046875 4.653938293457031 C 52.75509643554688 4.654159545898438 52.75811767578125 4.654380798339844 52.76107406616211 4.654609680175781 C 52.76123809814453 4.654617309570313 52.76132965087891 4.654624938964844 52.76149368286133 4.654640197753906 C 52.77096557617188 4.655357360839844 52.78038787841797 4.656089782714844 52.78985977172852 4.656829833984375 C 52.79018402099609 4.6568603515625 52.79032897949219 4.656867980957031 52.79065322875977 4.656890869140625 C 52.79370880126953 4.657135009765625 52.79674530029297 4.657371520996094 52.79980087280273 4.657615661621094 C 52.79980087280273 4.657615661621094 52.79987335205078 4.657623291015625 52.79987335205078 4.657623291015625 C 52.80944442749023 4.65838623046875 52.81900024414063 4.659164428710938 52.82856750488281 4.659950256347656 C 52.82873153686523 4.659965515136719 52.82875061035156 4.659965515136719 52.82891082763672 4.659980773925781 C 52.83201599121094 4.660240173339844 52.83510971069336 4.660491943359375 52.83821487426758 4.660751342773438 C 52.83821487426758 4.660751342773438 52.8383903503418 4.6607666015625 52.8383903503418 4.6607666015625 C 53.38018417358398 4.706024169921875 53.91890716552734 4.795234680175781 54.4488639831543 4.92840576171875 C 59.29740905761719 7.788589477539063 67.37847900390625 16.41358947753906 67.37847900390625 16.41358947753906 L 60.08106994628906 23.25081634521484 L 52.01177215576172 14.62688446044922 C 52.01056671142578 14.6265869140625 52.00616073608398 14.62581634521484 52 14.62581634521484 L 52 14.62189483642578 C 51.99560546875 14.62420654296875 51.99113464355469 14.62615203857422 51.98822784423828 14.62688446044922 L 51.97357177734375 14.56858825683594 L 52 14.60134124755859 L 52 4.625816345214844 C 52 4.625816345214844 52 4.625816345214844 52 4.625816345214844 Z M 81.05293273925781 31.00843048095703 C 81.05293273925781 31.00843048095703 94.72738647460938 45.603271484375 94.72738647460938 45.603271484375 L 87.42997741699219 52.44049453735352 L 73.75552368164063 37.84565734863281 L 81.05293273925781 31.00843048095703 Z M 89.78427124023438 56.04674530029297 L 97.08168029785156 62.88397216796875 C 97.08168029785156 62.88397216796875 83.4072265625 77.47881317138672 83.4072265625 77.47881317138672 L 76.10981750488281 70.64158630371094 L 89.78427124023438 56.04674530029297 Z M 62.43536376953125 85.23642730712891 L 69.73279571533203 92.07365417480469 L 59.90871047973633 102.5589599609375 C 59.90775299072266 102.5599822998047 59.90712356567383 102.5606536865234 59.90616607666016 102.5616760253906 L 59.90168380737305 102.5664596557617 C 59.90009307861328 102.5681533813477 59.89860534667969 102.5697402954102 59.89702224731445 102.5714340209961 L 59.89345550537109 102.5752410888672 C 59.89282608032227 102.5759124755859 59.89241027832031 102.5763549804688 59.89177703857422 102.577033996582 L 59.71000671386719 102.7710418701172 C 59.70973587036133 102.7713241577148 59.70962142944336 102.7714462280273 59.7093505859375 102.7717361450195 L 59.6855583190918 102.7971343994141 C 59.68412017822266 102.7986602783203 59.68274307250977 102.8001327514648 59.68131637573242 102.8016586303711 L 59.68114852905273 102.8018341064453 C 59.67738342285156 102.8058547973633 59.67355728149414 102.8099365234375 59.66984176635742 102.8139038085938 L 59.66759490966797 102.8163070678711 C 59.66606140136719 102.8179397583008 59.66447067260742 102.8196334838867 59.66294860839844 102.8212661743164 L 59.66231918334961 102.8219375610352 C 59.66092300415039 102.8234252929688 59.65961837768555 102.8248138427734 59.65822982788086 102.826301574707 L 59.65433883666992 102.830451965332 C 59.65370941162109 102.8311233520508 59.65303421020508 102.8318481445313 59.65240478515625 102.8325119018555 L 59.64969635009766 102.8354034423828 C 59.6485710144043 102.8366088867188 59.64751815795898 102.8377304077148 59.64640045166016 102.8389282226563 L 59.64311218261719 102.8424377441406 C 59.61252212524414 102.8750839233398 59.58393478393555 102.9055938720703 59.55712127685547 102.934211730957 L 59.55332946777344 102.9382629394531 C 59.49897384643555 102.9962768554688 59.45272064208984 103.0456390380859 59.41503524780273 103.0858612060547 L 59.41401672363281 103.0869522094727 C 59.33801651000977 103.1680603027344 59.29740905761719 103.2114028930664 59.29740905761719 103.2114028930664 L 51.99997711181641 96.37417602539063 L 62.43536376953125 85.23642730712891 Z M 32.59877014160156 75.6671142578125 L 46.27322769165039 90.26194763183594 L 38.97579193115234 97.09918212890625 L 36.69705200195313 94.66705322265625 C 36.69609069824219 94.66603088378906 36.69454956054688 94.66438293457031 36.69358825683594 94.66336059570313 L 36.61840057373047 94.58310699462891 C 36.61775207519531 94.58241271972656 36.61676025390625 94.58135986328125 36.61611175537109 94.58066558837891 L 36.5562744140625 94.51679992675781 C 36.55431365966797 94.51470947265625 36.55265808105469 94.51294708251953 36.55069732666016 94.51084899902344 L 36.54448699951172 94.50421905517578 C 36.54153442382813 94.50106811523438 36.53917694091797 94.49855041503906 36.53622436523438 94.49539947509766 L 36.52738952636719 94.48597717285156 C 36.5181884765625 94.47615051269531 36.50910949707031 94.46646118164063 36.49986267089844 94.45659637451172 L 36.49864959716797 94.45529937744141 C 36.48941040039063 94.4454345703125 36.47996520996094 94.43535614013672 36.47068023681641 94.42544555664063 L 36.46417999267578 94.41851043701172 C 36.44493865966797 94.39797210693359 36.42530059814453 94.37701416015625 36.40589904785156 94.35630798339844 L 36.40158081054688 94.35169982910156 C 36.38385009765625 94.332763671875 36.36636352539063 94.31410980224609 36.34850311279297 94.2950439453125 L 36.33551025390625 94.28117370605469 C 32.36112976074219 90.03929138183594 25.30136108398438 82.50433349609375 25.30136108398438 82.50433349609375 L 32.59877014160156 75.6671142578125 Z M 13.70347595214844 55.49999618530273 L 18.92431640625 61.07226943969727 L 11.62690734863281 67.90950012207031 L 7.349296569824219 63.34396743774414 C 7.348793029785156 63.34342956542969 7.34814453125 63.34273147583008 7.347640991210938 63.34219360351563 L 7.163223266601563 63.14536666870117 C 7.162643432617188 63.14474868774414 7.16192626953125 63.14397811889648 7.161346435546875 63.14336013793945 L 7.157524108886719 63.13928604125977 C 7.157180786132813 63.13891220092773 7.156829833984375 63.1385383605957 7.156478881835938 63.13816833496094 L 7.151931762695313 63.1333122253418 C 7.151123046875 63.13245010375977 7.150291442871094 63.13156509399414 7.149482727050781 63.13070297241211 L 7.146644592285156 63.12767028808594 C 7.14617919921875 63.12717819213867 7.145790100097656 63.12675857543945 7.145332336425781 63.12626647949219 L 7.141754150390625 63.12245559692383 C 7.13934326171875 63.11987686157227 7.136634826660156 63.11698532104492 7.134223937988281 63.11441802978516 L 7.129875183105469 63.10977172851563 C 7.129074096679688 63.10892105102539 7.128410339355469 63.10821151733398 7.127616882324219 63.10736083984375 L 7.124252319335938 63.1037712097168 C 7.1240234375 63.1035270690918 7.123748779296875 63.10323333740234 7.123519897460938 63.10298919677734 L 7.119087219238281 63.09826278686523 C 7.116592407226563 63.09559631347656 7.114082336425781 63.09291458129883 7.111595153808594 63.09025955200195 L 7.108482360839844 63.08694076538086 C 7.105545043945313 63.08380508422852 7.10272216796875 63.08079147338867 7.099800109863281 63.07767486572266 L 7.098556518554688 63.07634735107422 C 7.09698486328125 63.07466888427734 7.095436096191406 63.07301712036133 7.0938720703125 63.07134246826172 L 7.084526062011719 63.06137084960938 C 7.080848693847656 63.05744552612305 7.077178955078125 63.05352783203125 7.073524475097656 63.04962921142578 L 7.071037292480469 63.04697799682617 C 7.070487976074219 63.04638671875 7.069679260253906 63.04552459716797 7.069129943847656 63.04493713378906 L 7.065116882324219 63.04065322875977 C 7.062911987304688 63.03830337524414 7.060699462890625 63.03594589233398 7.058509826660156 63.03360366821289 L 7.054924011230469 63.0297737121582 C 7.053825378417969 63.02860641479492 7.052810668945313 63.02752304077148 7.051719665527344 63.0263557434082 L 7.034065246582031 63.00751876831055 C 7.033096313476563 63.00647735595703 7.0323486328125 63.00568389892578 7.031379699707031 63.0046501159668 L 7.030166625976563 63.00335693359375 C 7.028877258300781 63.00197601318359 7.027740478515625 63.00075912475586 7.026443481445313 62.99938201904297 L 7.024658203125 62.99747085571289 C 7.018104553222656 62.99047470092773 7.011772155761719 62.98372268676758 7.005302429199219 62.97681427001953 L 7.004661560058594 62.97613143920898 C 6.991722106933594 62.96232223510742 6.978996276855469 62.94873809814453 6.966392517089844 62.9352912902832 L 6.963088989257813 62.93175888061523 C 6.960304260253906 62.92879104614258 6.957794189453125 62.92610549926758 6.955024719238281 62.92315673828125 L 6.954849243164063 62.92296600341797 C 6.945121765136719 62.91258239746094 6.935615539550781 62.90243530273438 6.926094055175781 62.89227676391602 L 6.925178527832031 62.89130020141602 C 6.919570922851563 62.88531494140625 6.913825988769531 62.87918090820313 6.908294677734375 62.87327575683594 L 6.905792236328125 62.87060546875 C 6.900466918945313 62.86492538452148 6.895111083984375 62.85920715332031 6.889862060546875 62.85360336303711 L 6.884414672851563 62.84779357910156 C 6.879478454589844 62.84252548217773 6.874603271484375 62.83732223510742 6.869735717773438 62.83212280273438 L 6.869094848632813 62.83143997192383 C 6.863174438476563 62.82511901855469 6.857307434082031 62.8188591003418 6.851486206054688 62.81264114379883 L 6.850738525390625 62.81184387207031 C 6.838905334472656 62.79921722412109 6.827224731445313 62.78675079345703 6.8157958984375 62.77455520629883 L 6.815635681152344 62.77438354492188 C 6.792503356933594 62.74969482421875 6.770256042480469 62.72594833374023 6.748825073242188 62.70307159423828 L 6.748313903808594 62.7025260925293 C 6.7109375 62.66263198852539 6.676155090332031 62.62551498413086 6.644287109375 62.59149932861328 L 6.643539428710938 62.59070587158203 C 6.63946533203125 62.58635330200195 6.635513305664063 62.58213424682617 6.63153076171875 62.57788467407227 L 6.629356384277344 62.5755615234375 C 6.48724365234375 62.42388534545898 6.406044006347656 62.33722305297852 6.406044006347656 62.33722305297852 L 13.70347595214844 55.49999618530273 Z M 31.91291046142578 21.4390869140625 L 39.21034240722656 28.27631378173828 L 25.535888671875 42.87115478515625 L 18.23845672607422 36.03392791748047 L 31.91291046142578 21.4390869140625 Z M 49.54990768432617 4.928726196289063 L 51.97357177734375 14.56858825683594 L 45.73070526123047 6.8331298828125 C 46.87863540649414 5.906700134277344 48.18493270874023 5.271903991699219 49.54990768432617 4.928726196289063 Z" stroke="none" fill="#0dbb5a"/>
  </g>
</svg>
